<svg version="1.1" viewBox="0.0 0.0 194.43569553805773 190.51968503937007" fill="none" stroke="none" stroke-linecap="square" stroke-miterlimit="10" xmlns:xlink="http://www.w3.org/1999/xlink" xmlns="http://www.w3.org/2000/svg"><clipPath id="p.0"><path d="m0 0l194.4357 0l0 190.51968l-194.4357 0l0 -190.51968z" clip-rule="nonzero"/></clipPath><g clip-path="url(#p.0)"><path fill="#000000" fill-opacity="0.0" d="m0 0l194.4357 0l0 190.51968l-194.4357 0z" fill-rule="evenodd"/><path fill="#ffffff" d="m13.241469 10.62336l170.07874 0l0 170.07874l-170.07874 0z" fill-rule="evenodd"/><path stroke="#1c3ed3" stroke-width="8.0" stroke-linejoin="round" stroke-linecap="butt" d="m13.241469 10.62336l170.07874 0l0 170.07874l-170.07874 0z" fill-rule="evenodd"/><path fill="#1c3ed3" d="m85.75154 64.50147q0 4.578125 -2.21875 7.953125q-2.21875 3.375 -6.453125 5.203125q-4.234375 1.828125 -10.28125 1.828125q-2.671875 0 -5.21875 -0.359375q-2.546875 -0.34375 -4.890625 -1.03125q-2.328125 -0.6875 -4.4375 -1.703125l0 -10.125q3.65625 1.609375 7.59375 2.921875q3.9375 1.296875 7.796875 1.296875q2.671875 0 4.296875 -0.703125q1.640625 -0.703125 2.375 -1.9375q0.75 -1.234375 0.75 -2.8125q0 -1.9375 -1.3125 -3.296875q-1.296875 -1.375 -3.5625 -2.5625q-2.265625 -1.203125 -5.109375 -2.578125q-1.796875 -0.84375 -3.90625 -2.046875q-2.109375 -1.21875 -4.015625 -2.96875q-1.890625 -1.765625 -3.109375 -4.28125q-1.203125 -2.515625 -1.203125 -6.03125q0 -4.609375 2.109375 -7.875q2.109375 -3.265625 6.03125 -5.0q3.921875 -1.75 9.265625 -1.75q4.0 0 7.640625 0.9375q3.640625 0.921875 7.609375 2.6875l-3.515625 8.46875q-3.546875 -1.4375 -6.359375 -2.21875q-2.8125 -0.796875 -5.734375 -0.796875q-2.03125 0 -3.484375 0.65625q-1.4375 0.640625 -2.171875 1.828125q-0.734375 1.171875 -0.734375 2.71875q0 1.828125 1.0625 3.078125q1.078125 1.234375 3.234375 2.40625q2.171875 1.15625 5.40625 2.703125q3.9375 1.859375 6.71875 3.890625q2.796875 2.015625 4.3125 4.75q1.515625 2.71875 1.515625 6.75zm57.625 14.28125l-29.609375 0l0 -51.40625l29.609375 0l0 8.9375l-18.703125 0l0 11.28125l17.390625 0l0 8.9375l-17.390625 0l0 13.25l18.703125 0l0 9.0z" fill-rule="nonzero"/><path fill="#1c3ed3" d="m82.485916 113.37647l0 33.265617q0 5.3125 -2.34375 9.578125q-2.34375 4.265625 -7.078125 6.765625q-4.71875 2.5 -11.890625 2.5q-10.1875 0 -15.53125 -5.203125q-5.34375 -5.203125 -5.34375 -13.78125l0 -33.124992l10.859375 0l0 31.468742q0 6.359375 2.59375 8.9375q2.609375 2.5625 7.703125 2.5625q3.59375 0 5.8125 -1.234375q2.234375 -1.234375 3.28125 -3.796875q1.0625 -2.5625 1.0625 -6.53125l0 -31.406242l10.875 0zm73.40625 51.406242l-10.875 0l0 -22.1875l-20.34375 0l0 22.1875l-10.90625 0l0 -51.406242l10.90625 0l0 20.156242l20.34375 0l0 -20.156242l10.875 0l0 51.406242z" fill-rule="nonzero"/></g></svg>