<svg version="1.1" viewBox="0.0 0.0 1204.4566929133857 191.43569553805773" fill="none" stroke="none" stroke-linecap="square" stroke-miterlimit="10" xmlns:xlink="http://www.w3.org/1999/xlink" xmlns="http://www.w3.org/2000/svg"><clipPath id="p.0"><path d="m0 0l1204.4567 0l0 191.4357l-1204.4567 0l0 -191.4357z" clip-rule="nonzero"/></clipPath><g clip-path="url(#p.0)"><path fill="#000000" fill-opacity="0.0" d="m0 0l1204.4567 0l0 191.4357l-1204.4567 0z" fill-rule="evenodd"/><path fill="#000000" fill-opacity="0.0" d="m13.241469 10.62472l172.37794 0l0 176.25197l-172.37794 0z" fill-rule="evenodd"/><path stroke="#1c3ed3" stroke-width="4.0" stroke-linejoin="round" stroke-linecap="butt" d="m13.241469 10.62472l172.37794 0l0 176.25197l-172.37794 0z" fill-rule="evenodd"/><path fill="#000000" fill-opacity="0.0" d="m73.7769 0l109.543304 0l0 119.59055l-109.543304 0z" fill-rule="evenodd"/><path fill="#1c3ed3" d="m149.98244 94.71999l-39.203125 0l0 -70.421875l39.203125 0l0 7.21875l-31.015625 0l0 22.78125l29.234375 0l0 7.140625l-29.234375 0l0 26.0625l31.015625 0l0 7.21875z" fill-rule="nonzero"/><path fill="#000000" fill-opacity="0.0" d="m218.97638 13.254593l1008.62994 0l0 164.8189l-1008.62994 0z" fill-rule="evenodd"/><path fill="#1c3ed3" d="m253.00763 65.61272q0 4.328125 -2.140625 7.359375q-2.140625 3.03125 -6.0 4.640625q-3.84375 1.59375 -9.0625 1.59375q-2.75 0 -5.203125 -0.265625q-2.453125 -0.265625 -4.515625 -0.765625q-2.0625 -0.5 -3.625 -1.234375l0 -5.40625q2.5 1.015625 6.078125 1.90625q3.59375 0.875 7.5 0.875q3.65625 0 6.171875 -0.96875q2.53125 -0.984375 3.84375 -2.828125q1.3125 -1.84375 1.3125 -4.4375q0 -2.484375 -1.09375 -4.15625q-1.09375 -1.6875 -3.640625 -3.0625q-2.53125 -1.375 -6.921875 -2.9375q-3.09375 -1.09375 -5.453125 -2.40625q-2.34375 -1.3125 -3.9375 -2.96875q-1.59375 -1.671875 -2.40625 -3.859375q-0.8125 -2.1875 -0.8125 -5.015625q0 -3.875 1.96875 -6.640625q1.96875 -2.78125 5.46875 -4.25q3.515625 -1.484375 8.0625 -1.484375q3.890625 0 7.1875 0.734375q3.296875 0.71875 6.0625 1.953125l-1.765625 4.84375q-2.625 -1.09375 -5.5625 -1.828125q-2.9375 -0.734375 -6.0625 -0.734375q-3.109375 0 -5.25 0.921875q-2.140625 0.90625 -3.28125 2.578125q-1.125 1.65625 -1.125 3.9375q0 2.5625 1.078125 4.265625q1.078125 1.6875 3.453125 3.0q2.375 1.3125 6.296875 2.734375q4.28125 1.5625 7.265625 3.3125q2.984375 1.734375 4.546875 4.25q1.5625 2.5 1.5625 6.34375zm40.44336 -5.34375q0 4.484375 -1.171875 8.015625q-1.15625 3.515625 -3.34375 5.9375q-2.1875 2.421875 -5.296875 3.703125q-3.109375 1.28125 -7.015625 1.28125q-3.65625 0 -6.703125 -1.28125q-3.03125 -1.28125 -5.25 -3.703125q-2.203125 -2.421875 -3.421875 -5.9375q-1.203125 -3.53125 -1.203125 -8.015625q0 -5.96875 2.03125 -10.171875q2.03125 -4.203125 5.796875 -6.40625q3.765625 -2.21875 8.984375 -2.21875q4.96875 0 8.703125 2.234375q3.734375 2.21875 5.8125 6.421875q2.078125 4.203125 2.078125 10.140625zm-27.6875 0q0 4.390625 1.15625 7.609375q1.171875 3.21875 3.59375 4.984375q2.421875 1.75 6.234375 1.75q3.78125 0 6.21875 -1.75q2.453125 -1.765625 3.609375 -4.984375q1.171875 -3.21875 1.171875 -7.609375q0 -4.34375 -1.171875 -7.515625q-1.15625 -3.171875 -3.578125 -4.890625q-2.421875 -1.734375 -6.28125 -1.734375q-5.671875 0 -8.3125 3.75q-2.640625 3.75 -2.640625 10.390625zm53.421875 -13.8125l-9.0625 0l0 32.078125l-5.515625 0l0 -32.078125l-6.4375 0l0 -2.65625l6.4375 -1.828125l0 -2.421875q0 -4.578125 1.359375 -7.453125q1.359375 -2.875 3.953125 -4.234375q2.59375 -1.359375 6.3125 -1.359375q2.09375 0 3.828125 0.375q1.75 0.359375 3.078125 0.828125l-1.4375 4.34375q-1.125 -0.359375 -2.53125 -0.671875q-1.40625 -0.328125 -2.875 -0.328125q-3.15625 0 -4.671875 2.046875q-1.5 2.046875 -1.5 6.390625l0 2.65625l9.0625 0l0 4.3125zm18.423828 28.21875q1.359375 0 2.78125 -0.21875q1.4375 -0.234375 2.328125 -0.578125l0 4.296875q-0.953125 0.421875 -2.671875 0.71875q-1.703125 0.3125 -3.328125 0.3125q-2.890625 0 -5.25 -1.015625q-2.359375 -1.015625 -3.765625 -3.4375q-1.40625 -2.421875 -1.40625 -6.71875l0 -21.578125l-5.1875 0l0 -2.6875l5.21875 -2.15625l2.1875 -7.90625l3.3125 0l0 8.4375l10.671875 0l0 4.3125l-10.671875 0l0 21.421875q0 3.421875 1.578125 5.109375q1.578125 1.6875 4.203125 1.6875zm42.097656 3.796875l-6.46875 -21.1875q-0.4375 -1.359375 -0.8125 -2.671875q-0.375 -1.3125 -0.703125 -2.515625q-0.3125 -1.21875 -0.5625 -2.265625q-0.25 -1.046875 -0.40625 -1.8125l-0.234375 0q-0.140625 0.765625 -0.375 1.8125q-0.21875 1.046875 -0.546875 2.28125q-0.3125 1.21875 -0.6875 2.5625q-0.359375 1.34375 -0.8125 2.703125l-6.78125 21.09375l-6.203125 0l-10.03125 -36.390625l5.71875 0l5.234375 20.078125q0.53125 2.0 1.015625 3.9375q0.484375 1.9375 0.828125 3.65625q0.359375 1.703125 0.515625 2.96875l0.265625 0q0.203125 -0.828125 0.453125 -1.984375q0.25 -1.171875 0.5625 -2.484375q0.3125 -1.3125 0.671875 -2.625q0.375 -1.3125 0.734375 -2.46875l6.71875 -21.078125l5.9375 0l6.46875 21.046875q0.5 1.59375 0.984375 3.328125q0.484375 1.71875 0.875 3.328125q0.40625 1.609375 0.5625 2.875l0.265625 0q0.140625 -1.125 0.5 -2.78125q0.375 -1.671875 0.84375 -3.65625q0.484375 -2.0 1.015625 -4.0625l5.3125 -20.078125l5.609375 0l-10.046875 36.390625l-6.421875 0zm36.69336 -36.921875q6.515625 0 9.65625 2.921875q3.15625 2.921875 3.15625 9.328125l0 24.734375l-4.015625 0l-1.0625 -5.375l-0.265625 0q-1.515625 1.984375 -3.1875 3.328125q-1.65625 1.34375 -3.828125 2.03125q-2.171875 0.6875 -5.328125 0.6875q-3.328125 0 -5.90625 -1.15625q-2.5625 -1.171875 -4.046875 -3.53125q-1.46875 -2.359375 -1.46875 -5.984375q0 -5.4375 4.3125 -8.359375q4.3125 -2.921875 13.15625 -3.1875l6.265625 -0.265625l0 -2.234375q0 -4.703125 -2.03125 -6.59375q-2.015625 -1.90625 -5.703125 -1.90625q-2.859375 0 -5.453125 0.84375q-2.578125 0.828125 -4.90625 1.953125l-1.6875 -4.1875q2.453125 -1.265625 5.640625 -2.15625q3.1875 -0.890625 6.703125 -0.890625zm7.375 19.046875l-5.546875 0.234375q-6.8125 0.265625 -9.609375 2.234375q-2.78125 1.953125 -2.78125 5.546875q0 3.109375 1.890625 4.609375q1.90625 1.5 5.015625 1.5q4.859375 0 7.9375 -2.6875q3.09375 -2.703125 3.09375 -8.078125l0 -3.359375zm33.33203 -19.125q1.09375 0 2.28125 0.125q1.203125 0.109375 2.140625 0.3125l-0.703125 5.109375q-0.890625 -0.234375 -1.984375 -0.359375q-1.09375 -0.140625 -2.0625 -0.140625q-2.1875 0 -4.140625 0.890625q-1.9375 0.875 -3.40625 2.515625q-1.453125 1.640625 -2.28125 3.953125q-0.828125 2.3125 -0.828125 5.125l0 19.53125l-5.546875 0l0 -36.390625l4.578125 0l0.59375 6.703125l0.234375 0q1.140625 -2.015625 2.734375 -3.6875q1.59375 -1.6875 3.6875 -2.6875q2.109375 -1.0 4.703125 -1.0zm25.27539 0q4.640625 0 7.953125 2.0625q3.328125 2.0625 5.078125 5.765625q1.765625 3.703125 1.765625 8.640625l0 3.421875l-25.125 0q0.09375 6.40625 3.171875 9.765625q3.09375 3.359375 8.71875 3.359375q3.453125 0 6.109375 -0.625q2.65625 -0.640625 5.5 -1.875l0 4.859375q-2.75 1.21875 -5.453125 1.78125q-2.703125 0.578125 -6.390625 0.578125q-5.25 0 -9.15625 -2.140625q-3.890625 -2.15625 -6.0625 -6.296875q-2.15625 -4.15625 -2.15625 -10.171875q0 -5.875 1.96875 -10.171875q1.984375 -4.296875 5.578125 -6.625q3.609375 -2.328125 8.5 -2.328125zm-0.078125 4.515625q-4.40625 0 -7.03125 2.890625q-2.625 2.890625 -3.125 8.078125l19.265625 0q-0.03125 -3.265625 -1.015625 -5.734375q-0.984375 -2.46875 -2.984375 -3.84375q-1.984375 -1.390625 -5.109375 -1.390625zm69.76953 32.546875l-27.03125 0l0 -48.546875l27.03125 0l0 4.984375l-21.390625 0l0 15.703125l20.15625 0l0 4.921875l-20.15625 0l0 17.953125l21.390625 0l0 4.984375zm27.160156 -37.0625q6.46875 0 9.78125 3.171875q3.328125 3.171875 3.328125 10.1875l0 23.703125l-5.4375 0l0 -23.34375q0 -4.546875 -2.078125 -6.796875q-2.078125 -2.265625 -6.359375 -2.265625q-6.046875 0 -8.5 3.421875q-2.453125 3.421875 -2.453125 9.921875l0 19.0625l-5.515625 0l0 -36.390625l4.453125 0l0.828125 5.25l0.296875 0q1.15625 -1.9375 2.953125 -3.234375q1.796875 -1.3125 4.015625 -2.0q2.234375 -0.6875 4.6875 -0.6875zm34.625 53.40625q-7.171875 0 -11.0625 -2.6875q-3.875 -2.671875 -3.875 -7.484375q0 -3.421875 2.171875 -5.84375q2.171875 -2.421875 6.03125 -3.21875q-1.4375 -0.65625 -2.453125 -1.984375q-1.0 -1.328125 -1.0 -3.0625q0 -1.984375 1.109375 -3.5q1.109375 -1.515625 3.40625 -2.90625q-2.859375 -1.15625 -4.640625 -3.921875q-1.765625 -2.78125 -1.765625 -6.46875q0 -3.921875 1.625 -6.6875q1.625 -2.78125 4.703125 -4.234375q3.09375 -1.46875 7.484375 -1.46875q0.953125 0 1.9375 0.09375q0.984375 0.078125 1.875 0.234375q0.890625 0.140625 1.5625 0.34375l12.484375 0l0 3.546875l-6.703125 0.828125q0.984375 1.296875 1.640625 3.125q0.671875 1.828125 0.671875 4.046875q0 5.453125 -3.6875 8.65625q-3.671875 3.203125 -10.125 3.203125q-1.515625 0 -3.109375 -0.265625q-1.625 0.890625 -2.484375 1.984375q-0.84375 1.09375 -0.84375 2.53125q0 1.0625 0.640625 1.703125q0.65625 0.625 1.875 0.90625q1.234375 0.28125 2.96875 0.28125l6.40625 0q5.9375 0 9.109375 2.484375q3.171875 2.484375 3.171875 7.28125q0 6.03125 -4.921875 9.25q-4.90625 3.234375 -14.203125 3.234375zm0.171875 -4.328125q4.515625 0 7.484375 -0.921875q2.96875 -0.90625 4.4375 -2.609375q1.484375 -1.703125 1.484375 -4.0625q0 -2.203125 -1.0 -3.3125q-0.984375 -1.109375 -2.921875 -1.484375q-1.921875 -0.390625 -4.703125 -0.390625l-6.3125 0q-2.453125 0 -4.28125 0.765625q-1.828125 0.765625 -2.8125 2.25q-0.96875 1.5 -0.96875 3.734375q0 2.953125 2.484375 4.484375q2.484375 1.546875 7.109375 1.546875zm1.421875 -29.078125q3.953125 0 5.9375 -1.984375q2.0 -2.0 2.0 -5.828125q0 -4.078125 -2.03125 -6.109375q-2.015625 -2.046875 -5.96875 -2.046875q-3.78125 0 -5.828125 2.109375q-2.046875 2.09375 -2.046875 6.15625q0 3.71875 2.0625 5.71875q2.0625 1.984375 5.875 1.984375zm30.6875 -19.328125l0 36.390625l-5.515625 0l0 -36.390625l5.515625 0zm-2.6875 -13.609375q1.359375 0 2.328125 0.875q0.984375 0.875 0.984375 2.734375q0 1.828125 -0.984375 2.734375q-0.96875 0.890625 -2.328125 0.890625q-1.4375 0 -2.390625 -0.890625q-0.9375 -0.90625 -0.9375 -2.734375q0 -1.859375 0.9375 -2.734375q0.953125 -0.875 2.390625 -0.875zm31.572266 12.9375q6.46875 0 9.78125 3.171875q3.328125 3.171875 3.328125 10.1875l0 23.703125l-5.4375 0l0 -23.34375q0 -4.546875 -2.078125 -6.796875q-2.078125 -2.265625 -6.359375 -2.265625q-6.046875 0 -8.5 3.421875q-2.453125 3.421875 -2.453125 9.921875l0 19.0625l-5.515625 0l0 -36.390625l4.453125 0l0.828125 5.25l0.296875 0q1.15625 -1.9375 2.953125 -3.234375q1.796875 -1.3125 4.015625 -2.0q2.234375 -0.6875 4.6875 -0.6875zm38.484375 0q4.640625 0 7.953125 2.0625q3.328125 2.0625 5.078125 5.765625q1.765625 3.703125 1.765625 8.640625l0 3.421875l-25.125 0q0.09375 6.40625 3.171875 9.765625q3.09375 3.359375 8.71875 3.359375q3.453125 0 6.109375 -0.625q2.65625 -0.640625 5.5 -1.875l0 4.859375q-2.75 1.21875 -5.453125 1.78125q-2.703125 0.578125 -6.390625 0.578125q-5.25 0 -9.15625 -2.140625q-3.890625 -2.15625 -6.0625 -6.296875q-2.15625 -4.15625 -2.15625 -10.171875q0 -5.875 1.96875 -10.171875q1.984375 -4.296875 5.578125 -6.625q3.609375 -2.328125 8.5 -2.328125zm-0.078125 4.515625q-4.40625 0 -7.03125 2.890625q-2.625 2.890625 -3.125 8.078125l19.265625 0q-0.03125 -3.265625 -1.015625 -5.734375q-0.984375 -2.46875 -2.984375 -3.84375q-1.984375 -1.390625 -5.109375 -1.390625zm38.26172 -4.515625q4.640625 0 7.953125 2.0625q3.328125 2.0625 5.078125 5.765625q1.765625 3.703125 1.765625 8.640625l0 3.421875l-25.125 0q0.09375 6.40625 3.171875 9.765625q3.09375 3.359375 8.71875 3.359375q3.453125 0 6.109375 -0.625q2.65625 -0.640625 5.5 -1.875l0 4.859375q-2.75 1.21875 -5.453125 1.78125q-2.703125 0.578125 -6.390625 0.578125q-5.25 0 -9.15625 -2.140625q-3.890625 -2.15625 -6.0625 -6.296875q-2.15625 -4.15625 -2.15625 -10.171875q0 -5.875 1.96875 -10.171875q1.984375 -4.296875 5.578125 -6.625q3.609375 -2.328125 8.5 -2.328125zm-0.078125 4.515625q-4.40625 0 -7.03125 2.890625q-2.625 2.890625 -3.125 8.078125l19.265625 0q-0.03125 -3.265625 -1.015625 -5.734375q-0.984375 -2.46875 -2.984375 -3.84375q-1.984375 -1.390625 -5.109375 -1.390625zm40.777344 -4.515625q1.09375 0 2.28125 0.125q1.203125 0.109375 2.140625 0.3125l-0.703125 5.109375q-0.890625 -0.234375 -1.984375 -0.359375q-1.09375 -0.140625 -2.0625 -0.140625q-2.1875 0 -4.140625 0.890625q-1.9375 0.875 -3.40625 2.515625q-1.453125 1.640625 -2.28125 3.953125q-0.828125 2.3125 -0.828125 5.125l0 19.53125l-5.546875 0l0 -36.390625l4.578125 0l0.59375 6.703125l0.234375 0q1.140625 -2.015625 2.734375 -3.6875q1.59375 -1.6875 3.6875 -2.6875q2.109375 -1.0 4.703125 -1.0zm16.77539 0.671875l0 36.390625l-5.515625 0l0 -36.390625l5.515625 0zm-2.6875 -13.609375q1.359375 0 2.328125 0.875q0.984375 0.875 0.984375 2.734375q0 1.828125 -0.984375 2.734375q-0.96875 0.890625 -2.328125 0.890625q-1.4375 0 -2.390625 -0.890625q-0.9375 -0.90625 -0.9375 -2.734375q0 -1.859375 0.9375 -2.734375q0.953125 -0.875 2.390625 -0.875zm31.572266 12.9375q6.46875 0 9.78125 3.171875q3.328125 3.171875 3.328125 10.1875l0 23.703125l-5.4375 0l0 -23.34375q0 -4.546875 -2.078125 -6.796875q-2.078125 -2.265625 -6.359375 -2.265625q-6.046875 0 -8.5 3.421875q-2.453125 3.421875 -2.453125 9.921875l0 19.0625l-5.515625 0l0 -36.390625l4.453125 0l0.828125 5.25l0.296875 0q1.15625 -1.9375 2.953125 -3.234375q1.796875 -1.3125 4.015625 -2.0q2.234375 -0.6875 4.6875 -0.6875zm34.625 53.40625q-7.171875 0 -11.0625 -2.6875q-3.875 -2.671875 -3.875 -7.484375q0 -3.421875 2.171875 -5.84375q2.171875 -2.421875 6.03125 -3.21875q-1.4375 -0.65625 -2.453125 -1.984375q-1.0 -1.328125 -1.0 -3.0625q0 -1.984375 1.109375 -3.5q1.109375 -1.515625 3.40625 -2.90625q-2.859375 -1.15625 -4.640625 -3.921875q-1.765625 -2.78125 -1.765625 -6.46875q0 -3.921875 1.625 -6.6875q1.625 -2.78125 4.703125 -4.234375q3.09375 -1.46875 7.484375 -1.46875q0.953125 0 1.9375 0.09375q0.984375 0.078125 1.875 0.234375q0.890625 0.140625 1.5625 0.34375l12.484375 0l0 3.546875l-6.703125 0.828125q0.984375 1.296875 1.640625 3.125q0.671875 1.828125 0.671875 4.046875q0 5.453125 -3.6875 8.65625q-3.671875 3.203125 -10.125 3.203125q-1.515625 0 -3.109375 -0.265625q-1.625 0.890625 -2.484375 1.984375q-0.84375 1.09375 -0.84375 2.53125q0 1.0625 0.640625 1.703125q0.65625 0.625 1.875 0.90625q1.234375 0.28125 2.96875 0.28125l6.40625 0q5.9375 0 9.109375 2.484375q3.171875 2.484375 3.171875 7.28125q0 6.03125 -4.921875 9.25q-4.90625 3.234375 -14.203125 3.234375zm0.171875 -4.328125q4.515625 0 7.484375 -0.921875q2.96875 -0.90625 4.4375 -2.609375q1.484375 -1.703125 1.484375 -4.0625q0 -2.203125 -1.0 -3.3125q-0.984375 -1.109375 -2.921875 -1.484375q-1.921875 -0.390625 -4.703125 -0.390625l-6.3125 0q-2.453125 0 -4.28125 0.765625q-1.828125 0.765625 -2.8125 2.25q-0.96875 1.5 -0.96875 3.734375q0 2.953125 2.484375 4.484375q2.484375 1.546875 7.109375 1.546875zm1.421875 -29.078125q3.953125 0 5.9375 -1.984375q2.0 -2.0 2.0 -5.828125q0 -4.078125 -2.03125 -6.109375q-2.015625 -2.046875 -5.96875 -2.046875q-3.78125 0 -5.828125 2.109375q-2.046875 2.09375 -2.046875 6.15625q0 3.71875 2.0625 5.71875q2.0625 1.984375 5.875 1.984375z" fill-rule="nonzero"/><path fill="#1c3ed3" d="m230.3045 123.74397l0 36.390625l-5.515625 0l0 -36.390625l5.515625 0zm-2.6875 -13.609375q1.359375 0 2.328125 0.875q0.984375 0.875 0.984375 2.734375q0 1.828125 -0.984375 2.734375q-0.96875 0.890625 -2.328125 0.890625q-1.4375 0 -2.390625 -0.890625q-0.9375 -0.90625 -0.9375 -2.734375q0 -1.859375 0.9375 -2.734375q0.953125 -0.875 2.390625 -0.875zm53.853516 12.9375q6.0 0 9.046875 3.140625q3.0625 3.140625 3.0625 10.078125l0 23.84375l-5.4375 0l0 -23.578125q0 -4.40625 -1.921875 -6.609375q-1.90625 -2.21875 -5.65625 -2.21875q-5.28125 0 -7.671875 3.0625q-2.390625 3.046875 -2.390625 8.984375l0 20.359375l-5.46875 0l0 -23.578125q0 -2.953125 -0.859375 -4.90625q-0.84375 -1.96875 -2.515625 -2.9375q-1.671875 -0.984375 -4.234375 -0.984375q-3.609375 0 -5.8125 1.5q-2.1875 1.484375 -3.171875 4.421875q-0.96875 2.9375 -0.96875 7.21875l0 19.265625l-5.515625 0l0 -36.390625l4.453125 0l0.828125 5.140625l0.296875 0q1.09375 -1.890625 2.75 -3.1875q1.671875 -1.296875 3.71875 -1.953125q2.0625 -0.671875 4.390625 -0.671875q4.140625 0 6.953125 1.546875q2.8125 1.546875 4.0625 4.703125l0.296875 0q1.796875 -3.15625 4.921875 -4.703125q3.125 -1.546875 6.84375 -1.546875zm78.64844 -11.484375l0 31.40625q0 5.15625 -2.078125 9.171875q-2.0625 4.015625 -6.25 6.328125q-4.1875 2.3125 -10.5 2.3125q-8.984375 0 -13.6875 -4.875q-4.703125 -4.890625 -4.703125 -13.0625l0 -31.28125l5.6875 0l0 31.453125q0 6.171875 3.265625 9.53125q3.265625 3.34375 9.78125 3.34375q4.4375 0 7.28125 -1.609375q2.84375 -1.609375 4.21875 -4.515625q1.375 -2.90625 1.375 -6.71875l0 -31.484375l5.609375 0zm29.259766 11.484375q6.46875 0 9.78125 3.171875q3.328125 3.171875 3.328125 10.1875l0 23.703125l-5.4375 0l0 -23.34375q0 -4.546875 -2.078125 -6.796875q-2.078125 -2.265625 -6.359375 -2.265625q-6.046875 0 -8.5 3.421875q-2.453125 3.421875 -2.453125 9.921875l0 19.0625l-5.515625 0l0 -36.390625l4.453125 0l0.828125 5.25l0.296875 0q1.15625 -1.9375 2.953125 -3.234375q1.796875 -1.3125 4.015625 -2.0q2.234375 -0.6875 4.6875 -0.6875zm36.21875 33.203125q1.359375 0 2.78125 -0.21875q1.4375 -0.234375 2.328125 -0.578125l0 4.296875q-0.953125 0.421875 -2.671875 0.71875q-1.703125 0.3125 -3.328125 0.3125q-2.890625 0 -5.25 -1.015625q-2.359375 -1.015625 -3.765625 -3.4375q-1.40625 -2.421875 -1.40625 -6.71875l0 -21.578125l-5.1875 0l0 -2.6875l5.21875 -2.15625l2.1875 -7.90625l3.3125 0l0 8.4375l10.671875 0l0 4.3125l-10.671875 0l0 21.421875q0 3.421875 1.578125 5.109375q1.578125 1.6875 4.203125 1.6875zm26.503906 -33.203125q4.640625 0 7.953125 2.0625q3.328125 2.0625 5.078125 5.765625q1.765625 3.703125 1.765625 8.640625l0 3.421875l-25.125 0q0.09375 6.40625 3.171875 9.765625q3.09375 3.359375 8.71875 3.359375q3.453125 0 6.109375 -0.625q2.65625 -0.640625 5.5 -1.875l0 4.859375q-2.75 1.21875 -5.453125 1.78125q-2.703125 0.578125 -6.390625 0.578125q-5.25 0 -9.15625 -2.140625q-3.890625 -2.15625 -6.0625 -6.296875q-2.15625 -4.15625 -2.15625 -10.171875q0 -5.875 1.96875 -10.171875q1.984375 -4.296875 5.578125 -6.625q3.609375 -2.328125 8.5 -2.328125zm-0.078125 4.515625q-4.40625 0 -7.03125 2.890625q-2.625 2.890625 -3.125 8.078125l19.265625 0q-0.03125 -3.265625 -1.015625 -5.734375q-0.984375 -2.46875 -2.984375 -3.84375q-1.984375 -1.390625 -5.109375 -1.390625zm40.777344 -4.515625q1.09375 0 2.28125 0.125q1.203125 0.109375 2.140625 0.3125l-0.703125 5.109375q-0.890625 -0.234375 -1.984375 -0.359375q-1.09375 -0.140625 -2.0625 -0.140625q-2.1875 0 -4.140625 0.890625q-1.9375 0.875 -3.40625 2.515625q-1.453125 1.640625 -2.28125 3.953125q-0.828125 2.3125 -0.828125 5.125l0 19.53125l-5.546875 0l0 -36.390625l4.578125 0l0.59375 6.703125l0.234375 0q1.140625 -2.015625 2.734375 -3.6875q1.59375 -1.6875 3.6875 -2.6875q2.109375 -1.0 4.703125 -1.0zm27.791016 0q1.09375 0 2.28125 0.125q1.203125 0.109375 2.140625 0.3125l-0.703125 5.109375q-0.890625 -0.234375 -1.984375 -0.359375q-1.09375 -0.140625 -2.0625 -0.140625q-2.1875 0 -4.140625 0.890625q-1.9375 0.875 -3.40625 2.515625q-1.453125 1.640625 -2.28125 3.953125q-0.828125 2.3125 -0.828125 5.125l0 19.53125l-5.546875 0l0 -36.390625l4.578125 0l0.59375 6.703125l0.234375 0q1.140625 -2.015625 2.734375 -3.6875q1.59375 -1.6875 3.6875 -2.6875q2.109375 -1.0 4.703125 -1.0zm16.77539 0.671875l0 36.390625l-5.515625 0l0 -36.390625l5.515625 0zm-2.6875 -13.609375q1.359375 0 2.328125 0.875q0.984375 0.875 0.984375 2.734375q0 1.828125 -0.984375 2.734375q-0.96875 0.890625 -2.328125 0.890625q-1.4375 0 -2.390625 -0.890625q-0.9375 -0.90625 -0.9375 -2.734375q0 -1.859375 0.9375 -2.734375q0.953125 -0.875 2.390625 -0.875zm28.916016 50.671875q-4.921875 0 -8.671875 -2.03125q-3.75 -2.03125 -5.84375 -6.171875q-2.09375 -4.15625 -2.09375 -10.46875q0 -6.609375 2.203125 -10.796875q2.21875 -4.203125 6.09375 -6.234375q3.890625 -2.03125 8.84375 -2.03125q2.71875 0 5.25 0.5625q2.546875 0.546875 4.171875 1.375l-1.65625 4.609375q-1.65625 -0.65625 -3.84375 -1.1875q-2.171875 -0.53125 -4.0625 -0.53125q-3.78125 0 -6.296875 1.625q-2.5 1.625 -3.75 4.78125q-1.234375 3.15625 -1.234375 7.765625q0 4.421875 1.203125 7.546875q1.21875 3.109375 3.625 4.75q2.40625 1.640625 6.03125 1.640625q2.890625 0 5.203125 -0.609375q2.328125 -0.609375 4.21875 -1.4375l0 4.90625q-1.828125 0.9375 -4.078125 1.4375q-2.234375 0.5 -5.3125 0.5zm23.509766 -52.34375l0 15.453125q0 1.328125 -0.078125 2.671875q-0.0625 1.34375 -0.21875 2.46875l0.359375 0q1.125 -1.921875 2.859375 -3.234375q1.75 -1.3125 3.96875 -1.984375q2.234375 -0.6875 4.71875 -0.6875q4.390625 0 7.328125 1.390625q2.9375 1.390625 4.40625 4.3125q1.484375 2.921875 1.484375 7.578125l0 23.703125l-5.4375 0l0 -23.34375q0 -4.546875 -2.078125 -6.796875q-2.078125 -2.265625 -6.359375 -2.265625q-4.046875 0 -6.453125 1.546875q-2.40625 1.546875 -3.453125 4.53125q-1.046875 2.984375 -1.046875 7.296875l0 19.03125l-5.515625 0l0 -51.671875l5.515625 0zm47.9375 47.8125q1.359375 0 2.78125 -0.21875q1.4375 -0.234375 2.328125 -0.578125l0 4.296875q-0.953125 0.421875 -2.671875 0.71875q-1.703125 0.3125 -3.328125 0.3125q-2.890625 0 -5.25 -1.015625q-2.359375 -1.015625 -3.765625 -3.4375q-1.40625 -2.421875 -1.40625 -6.71875l0 -21.578125l-5.1875 0l0 -2.6875l5.21875 -2.15625l2.1875 -7.90625l3.3125 0l0 8.4375l10.671875 0l0 4.3125l-10.671875 0l0 21.421875q0 3.421875 1.578125 5.109375q1.578125 1.6875 4.203125 1.6875zm43.10547 4.53125q-6.90625 0 -10.953125 -4.71875q-4.03125 -4.71875 -4.03125 -14.015625q0 -9.390625 4.109375 -14.1875q4.125 -4.8125 10.96875 -4.8125q2.890625 0 5.046875 0.765625q2.15625 0.765625 3.71875 2.046875q1.5625 1.28125 2.625 2.90625l0.390625 0q-0.125 -1.03125 -0.265625 -2.8125q-0.125 -1.796875 -0.125 -2.9375l0 -14.578125l5.515625 0l0 51.671875l-4.453125 0l-0.828125 -5.1875l-0.234375 0q-1.03125 1.640625 -2.609375 2.96875q-1.578125 1.328125 -3.75 2.109375q-2.171875 0.78125 -5.125 0.78125zm0.859375 -4.59375q5.84375 0 8.265625 -3.3125q2.421875 -3.328125 2.421875 -9.859375l0 -1.0q0 -6.9375 -2.3125 -10.65625q-2.296875 -3.71875 -8.375 -3.71875q-5.078125 0 -7.609375 3.90625q-2.515625 3.890625 -2.515625 10.625q0 6.71875 2.5 10.375q2.515625 3.640625 7.625 3.640625zm41.80664 -33.140625q4.640625 0 7.953125 2.0625q3.328125 2.0625 5.078125 5.765625q1.765625 3.703125 1.765625 8.640625l0 3.421875l-25.125 0q0.09375 6.40625 3.171875 9.765625q3.09375 3.359375 8.71875 3.359375q3.453125 0 6.109375 -0.625q2.65625 -0.640625 5.5 -1.875l0 4.859375q-2.75 1.21875 -5.453125 1.78125q-2.703125 0.578125 -6.390625 0.578125q-5.25 0 -9.15625 -2.140625q-3.890625 -2.15625 -6.0625 -6.296875q-2.15625 -4.15625 -2.15625 -10.171875q0 -5.875 1.96875 -10.171875q1.984375 -4.296875 5.578125 -6.625q3.609375 -2.328125 8.5 -2.328125zm-0.078125 4.515625q-4.40625 0 -7.03125 2.890625q-2.625 2.890625 -3.125 8.078125l19.265625 0q-0.03125 -3.265625 -1.015625 -5.734375q-0.984375 -2.46875 -2.984375 -3.84375q-1.984375 -1.390625 -5.109375 -1.390625zm40.777344 -4.515625q1.09375 0 2.28125 0.125q1.203125 0.109375 2.140625 0.3125l-0.703125 5.109375q-0.890625 -0.234375 -1.984375 -0.359375q-1.09375 -0.140625 -2.0625 -0.140625q-2.1875 0 -4.140625 0.890625q-1.9375 0.875 -3.40625 2.515625q-1.453125 1.640625 -2.28125 3.953125q-0.828125 2.3125 -0.828125 5.125l0 19.53125l-5.546875 0l0 -36.390625l4.578125 0l0.59375 6.703125l0.234375 0q1.140625 -2.015625 2.734375 -3.6875q1.59375 -1.6875 3.6875 -2.6875q2.109375 -1.0 4.703125 -1.0zm66.54883 37.0625l-5.65625 0l0 -22.875l-25.5 0l0 22.875l-5.640625 0l0 -48.546875l5.640625 0l0 20.6875l25.5 0l0 -20.6875l5.65625 0l0 48.546875zm43.88672 -18.265625q0 4.484375 -1.171875 8.015625q-1.15625 3.515625 -3.34375 5.9375q-2.1875 2.421875 -5.296875 3.703125q-3.109375 1.28125 -7.015625 1.28125q-3.65625 0 -6.703125 -1.28125q-3.03125 -1.28125 -5.25 -3.703125q-2.203125 -2.421875 -3.421875 -5.9375q-1.203125 -3.53125 -1.203125 -8.015625q0 -5.96875 2.03125 -10.171875q2.03125 -4.203125 5.796875 -6.40625q3.765625 -2.21875 8.984375 -2.21875q4.96875 0 8.703125 2.234375q3.734375 2.21875 5.8125 6.421875q2.078125 4.203125 2.078125 10.140625zm-27.6875 0q0 4.390625 1.15625 7.609375q1.171875 3.21875 3.59375 4.984375q2.421875 1.75 6.234375 1.75q3.78125 0 6.21875 -1.75q2.453125 -1.765625 3.609375 -4.984375q1.171875 -3.21875 1.171875 -7.609375q0 -4.34375 -1.171875 -7.515625q-1.15625 -3.171875 -3.578125 -4.890625q-2.421875 -1.734375 -6.28125 -1.734375q-5.671875 0 -8.3125 3.75q-2.640625 3.75 -2.640625 10.390625zm51.796875 18.9375q-4.921875 0 -8.671875 -2.03125q-3.75 -2.03125 -5.84375 -6.171875q-2.09375 -4.15625 -2.09375 -10.46875q0 -6.609375 2.203125 -10.796875q2.21875 -4.203125 6.09375 -6.234375q3.890625 -2.03125 8.84375 -2.03125q2.71875 0 5.25 0.5625q2.546875 0.546875 4.171875 1.375l-1.65625 4.609375q-1.65625 -0.65625 -3.84375 -1.1875q-2.171875 -0.53125 -4.0625 -0.53125q-3.78125 0 -6.296875 1.625q-2.5 1.625 -3.75 4.78125q-1.234375 3.15625 -1.234375 7.765625q0 4.421875 1.203125 7.546875q1.21875 3.109375 3.625 4.75q2.40625 1.640625 6.03125 1.640625q2.890625 0 5.203125 -0.609375q2.328125 -0.609375 4.21875 -1.4375l0 4.90625q-1.828125 0.9375 -4.078125 1.4375q-2.234375 0.5 -5.3125 0.5zm23.509766 -52.34375l0 15.453125q0 1.328125 -0.078125 2.671875q-0.0625 1.34375 -0.21875 2.46875l0.359375 0q1.125 -1.921875 2.859375 -3.234375q1.75 -1.3125 3.96875 -1.984375q2.234375 -0.6875 4.71875 -0.6875q4.390625 0 7.328125 1.390625q2.9375 1.390625 4.40625 4.3125q1.484375 2.921875 1.484375 7.578125l0 23.703125l-5.4375 0l0 -23.34375q0 -4.546875 -2.078125 -6.796875q-2.078125 -2.265625 -6.359375 -2.265625q-4.046875 0 -6.453125 1.546875q-2.40625 1.546875 -3.453125 4.53125q-1.046875 2.984375 -1.046875 7.296875l0 19.03125l-5.515625 0l0 -51.671875l5.515625 0zm59.734375 41.703125q0 3.5 -1.75 5.875q-1.75 2.359375 -4.984375 3.5625q-3.234375 1.203125 -7.71875 1.203125q-3.8125 0 -6.609375 -0.609375q-2.78125 -0.59375 -4.875 -1.6875l0 -5.078125q2.21875 1.09375 5.3125 2.0q3.09375 0.890625 6.3125 0.890625q4.703125 0 6.828125 -1.53125q2.125 -1.53125 2.125 -4.15625q0 -1.484375 -0.84375 -2.625q-0.84375 -1.15625 -2.84375 -2.234375q-1.984375 -1.078125 -5.5 -2.375q-3.484375 -1.328125 -6.03125 -2.640625q-2.53125 -1.3125 -3.921875 -3.203125q-1.375 -1.890625 -1.375 -4.921875q0 -4.609375 3.734375 -7.078125q3.734375 -2.484375 9.8125 -2.484375q3.296875 0 6.15625 0.65625q2.875 0.640625 5.375 1.734375l-1.859375 4.421875q-2.265625 -0.96875 -4.828125 -1.625q-2.546875 -0.671875 -5.203125 -0.671875q-3.828125 0 -5.875 1.265625q-2.03125 1.265625 -2.03125 3.453125q0 1.703125 0.9375 2.796875q0.953125 1.09375 3.046875 2.0625q2.09375 0.953125 5.515625 2.25q3.421875 1.265625 5.90625 2.609375q2.484375 1.34375 3.828125 3.25q1.359375 1.90625 1.359375 4.890625zm23.4375 10.640625q-4.921875 0 -8.671875 -2.03125q-3.75 -2.03125 -5.84375 -6.171875q-2.09375 -4.15625 -2.09375 -10.46875q0 -6.609375 2.203125 -10.796875q2.21875 -4.203125 6.09375 -6.234375q3.890625 -2.03125 8.84375 -2.03125q2.71875 0 5.25 0.5625q2.546875 0.546875 4.171875 1.375l-1.65625 4.609375q-1.65625 -0.65625 -3.84375 -1.1875q-2.171875 -0.53125 -4.0625 -0.53125q-3.78125 0 -6.296875 1.625q-2.5 1.625 -3.75 4.78125q-1.234375 3.15625 -1.234375 7.765625q0 4.421875 1.203125 7.546875q1.21875 3.109375 3.625 4.75q2.40625 1.640625 6.03125 1.640625q2.890625 0 5.203125 -0.609375q2.328125 -0.609375 4.21875 -1.4375l0 4.90625q-1.828125 0.9375 -4.078125 1.4375q-2.234375 0.5 -5.3125 0.5zm23.509705 -52.34375l0 15.453125q0 1.328125 -0.078125 2.671875q-0.0625 1.34375 -0.21875 2.46875l0.359375 0q1.125 -1.921875 2.859375 -3.234375q1.75 -1.3125 3.96875 -1.984375q2.234375 -0.6875 4.71875 -0.6875q4.390625 0 7.328125 1.390625q2.9375 1.390625 4.40625 4.3125q1.484375 2.921875 1.484375 7.578125l0 23.703125l-5.4375 0l0 -23.34375q0 -4.546875 -2.078125 -6.796875q-2.078125 -2.265625 -6.359375 -2.265625q-4.046875 0 -6.453125 1.546875q-2.40625 1.546875 -3.453125 4.53125q-1.046875 2.984375 -1.046875 7.296875l0 19.03125l-5.515564 0l0 -51.671875l5.515564 0zm66.234375 15.28125l0 36.390625l-4.515625 0l-0.796875 -5.109375l-0.296875 0q-1.125 1.890625 -2.921875 3.1875q-1.796875 1.296875 -4.046875 1.9375q-2.234375 0.65625 -4.75 0.65625q-4.3125 0 -7.234375 -1.390625q-2.921875 -1.40625 -4.40625 -4.328125q-1.484375 -2.921875 -1.484375 -7.5l0 -23.84375l5.578125 0l0 23.4375q0 4.546875 2.0625 6.796875q2.0625 2.234375 6.28125 2.234375q4.046875 0 6.453125 -1.515625q2.40625 -1.53125 3.46875 -4.5q1.0625 -2.984375 1.0625 -7.296875l0 -19.15625l5.546875 0zm17.203125 36.390625l-5.546875 0l0 -51.671875l5.546875 0l0 51.671875zm25.634766 -37.0625q4.640625 0 7.953125 2.0625q3.328125 2.0625 5.078125 5.765625q1.765625 3.703125 1.765625 8.640625l0 3.421875l-25.125 0q0.09375 6.40625 3.171875 9.765625q3.09375 3.359375 8.71875 3.359375q3.453125 0 6.109375 -0.625q2.65625 -0.640625 5.5 -1.875l0 4.859375q-2.75 1.21875 -5.453125 1.78125q-2.703125 0.578125 -6.390625 0.578125q-5.25 0 -9.15625 -2.140625q-3.890625 -2.15625 -6.0625 -6.296875q-2.15625 -4.15625 -2.15625 -10.171875q0 -5.875 1.96875 -10.171875q1.984375 -4.296875 5.578125 -6.625q3.609375 -2.328125 8.5 -2.328125zm-0.078125 4.515625q-4.40625 0 -7.03125 2.890625q-2.625 2.890625 -3.125 8.078125l19.265625 0q-0.03125 -3.265625 -1.015625 -5.734375q-0.984375 -2.46875 -2.984375 -3.84375q-1.984375 -1.390625 -5.109375 -1.390625zm41.48047 -4.515625q6.46875 0 9.78125 3.171875q3.328125 3.171875 3.328125 10.1875l0 23.703125l-5.4375 0l0 -23.34375q0 -4.546875 -2.078125 -6.796875q-2.078125 -2.265625 -6.359375 -2.265625q-6.046875 0 -8.5 3.421875q-2.453125 3.421875 -2.453125 9.921875l0 19.0625l-5.515625 0l0 -36.390625l4.453125 0l0.828125 5.25l0.296875 0q1.15625 -1.9375 2.953125 -3.234375q1.796875 -1.3125 4.015625 -2.0q2.234375 -0.6875 4.6875 -0.6875z" fill-rule="nonzero"/><path fill="#000000" fill-opacity="0.0" d="m99.78215 79.779526l109.543304 0l0 119.590546l-109.543304 0z" fill-rule="evenodd"/><path fill="#1c3ed3" d="m162.79778 174.49953l-8.203125 0l0 -33.1875l-36.984375 0l0 33.1875l-8.1875 0l0 -70.42188l8.1875 0l0 30.000008l36.984375 0l0 -30.000008l8.203125 0l0 70.42188z" fill-rule="nonzero"/><path fill="#000000" fill-opacity="0.0" d="m-1.1023622 79.779526l109.54331 0l0 119.590546l-109.54331 0z" fill-rule="evenodd"/><path fill="#1c3ed3" d="m80.61514 104.077644l0 45.562508q0 7.46875 -3.015625 13.296875q-3.0 5.828125 -9.078125 9.1875q-6.0625 3.34375 -15.21875 3.34375q-13.046875 0 -19.875 -7.078125q-6.812498 -7.09375 -6.812498 -18.9375l0 -45.375008l8.249998 0l0 45.609383q0 8.96875 4.734375 13.828125q4.75 4.859375 14.1875 4.859375q6.453125 0 10.5625 -2.328125q4.125 -2.34375 6.125 -6.546875q2.0 -4.21875 2.0 -9.765625l0 -45.656258l8.140625 0z" fill-rule="nonzero"/><path fill="#000000" fill-opacity="0.0" d="m2.4593177 0l109.543304 0l0 119.59055l-109.543304 0z" fill-rule="evenodd"/><path fill="#1c3ed3" d="m79.557396 75.98562q0 6.265625 -3.109375 10.671875q-3.109375 4.40625 -8.703125 6.71875q-5.578129 2.3125 -13.140629 2.3125q-4.0 0 -7.5625 -0.390625q-3.5625 -0.390625 -6.546875 -1.109375q-2.984375 -0.71875 -5.25 -1.78125l0 -7.859375q3.609375 1.5 8.8125 2.78125q5.203125 1.265625 10.890625 1.265625q5.296875 0 8.953125 -1.40625q3.6562538 -1.421875 5.562504 -4.09375q1.90625 -2.6875 1.90625 -6.4375q0 -3.609375 -1.59375 -6.046875q-1.59375 -2.4375 -5.28125 -4.4375q-3.6718788 -2.0 -10.031254 -4.265625q-4.484375 -1.578125 -7.90625 -3.484375q-3.421875 -1.90625 -5.734375 -4.3125q-2.3125 -2.40625 -3.5 -5.578125q-1.171875 -3.1875 -1.171875 -7.28125q0 -5.640625 2.859375 -9.65625q2.875 -4.03125 7.953125 -6.171875q5.09375 -2.140625 11.6875 -2.140625q5.640629 0 10.421879 1.0625q4.796875 1.0625 8.796875 2.84375l-2.546875 7.03125q-3.8125 -1.59375 -8.078125 -2.65625q-4.250004 -1.0625 -8.781254 -1.0625q-4.53125 0 -7.640625 1.328125q-3.109375 1.328125 -4.75 3.734375q-1.625 2.40625 -1.625 5.734375q0 3.703125 1.5625 6.171875q1.5625 2.453125 5.0 4.359375q3.453125 1.890625 9.140625 3.96875q6.203129 2.265625 10.531254 4.796875q4.34375 2.53125 6.609375 6.171875q2.265625 3.625 2.265625 9.21875z" fill-rule="nonzero"/></g></svg>