<svg version="1.1" viewBox="0.0 0.0 197.45144356955382 198.8477690288714" fill="none" stroke="none" stroke-linecap="square" stroke-miterlimit="10" xmlns:xlink="http://www.w3.org/1999/xlink" xmlns="http://www.w3.org/2000/svg"><clipPath id="p.0"><path d="m0 0l197.45145 0l0 198.84776l-197.45145 0l0 -198.84776z" clip-rule="nonzero"/></clipPath><g clip-path="url(#p.0)"><path fill="#000000" fill-opacity="0.0" d="m0 0l197.45145 0l0 198.84776l-197.45145 0z" fill-rule="evenodd"/><path fill="#000000" fill-opacity="0.0" d="m13.241469 10.62472l172.37794 0l0 176.25197l-172.37794 0z" fill-rule="evenodd"/><path stroke="#1c3ed3" stroke-width="4.0" stroke-linejoin="round" stroke-linecap="butt" d="m13.241469 10.62472l172.37794 0l0 176.25197l-172.37794 0z" fill-rule="evenodd"/><path fill="#000000" fill-opacity="0.0" d="m73.7769 0l109.543304 0l0 119.59055l-109.543304 0z" fill-rule="evenodd"/><path fill="#1c3ed3" d="m149.98244 94.71999l-39.203125 0l0 -70.421875l39.203125 0l0 7.21875l-31.015625 0l0 22.78125l29.234375 0l0 7.140625l-29.234375 0l0 26.0625l31.015625 0l0 7.21875z" fill-rule="nonzero"/><path fill="#000000" fill-opacity="0.0" d="m99.78215 79.779526l109.543304 0l0 119.590546l-109.543304 0z" fill-rule="evenodd"/><path fill="#1c3ed3" d="m162.79778 174.49953l-8.203125 0l0 -33.1875l-36.984375 0l0 33.1875l-8.1875 0l0 -70.42188l8.1875 0l0 30.000008l36.984375 0l0 -30.000008l8.203125 0l0 70.42188z" fill-rule="nonzero"/><path fill="#000000" fill-opacity="0.0" d="m-1.1023622 79.779526l109.54331 0l0 119.590546l-109.54331 0z" fill-rule="evenodd"/><path fill="#1c3ed3" d="m80.61514 104.077644l0 45.562508q0 7.46875 -3.015625 13.296875q-3.0 5.828125 -9.078125 9.1875q-6.0625 3.34375 -15.21875 3.34375q-13.046875 0 -19.875 -7.078125q-6.812498 -7.09375 -6.812498 -18.9375l0 -45.375008l8.249998 0l0 45.609383q0 8.96875 4.734375 13.828125q4.75 4.859375 14.1875 4.859375q6.453125 0 10.5625 -2.328125q4.125 -2.34375 6.125 -6.546875q2.0 -4.21875 2.0 -9.765625l0 -45.656258l8.140625 0z" fill-rule="nonzero"/><path fill="#000000" fill-opacity="0.0" d="m2.4593177 0l109.543304 0l0 119.59055l-109.543304 0z" fill-rule="evenodd"/><path fill="#1c3ed3" d="m79.557396 75.98562q0 6.265625 -3.109375 10.671875q-3.109375 4.40625 -8.703125 6.71875q-5.578129 2.3125 -13.140629 2.3125q-4.0 0 -7.5625 -0.390625q-3.5625 -0.390625 -6.546875 -1.109375q-2.984375 -0.71875 -5.25 -1.78125l0 -7.859375q3.609375 1.5 8.8125 2.78125q5.203125 1.265625 10.890625 1.265625q5.296875 0 8.953125 -1.40625q3.6562538 -1.421875 5.562504 -4.09375q1.90625 -2.6875 1.90625 -6.4375q0 -3.609375 -1.59375 -6.046875q-1.59375 -2.4375 -5.28125 -4.4375q-3.6718788 -2.0 -10.031254 -4.265625q-4.484375 -1.578125 -7.90625 -3.484375q-3.421875 -1.90625 -5.734375 -4.3125q-2.3125 -2.40625 -3.5 -5.578125q-1.171875 -3.1875 -1.171875 -7.28125q0 -5.640625 2.859375 -9.65625q2.875 -4.03125 7.953125 -6.171875q5.09375 -2.140625 11.6875 -2.140625q5.640629 0 10.421879 1.0625q4.796875 1.0625 8.796875 2.84375l-2.546875 7.03125q-3.8125 -1.59375 -8.078125 -2.65625q-4.250004 -1.0625 -8.781254 -1.0625q-4.53125 0 -7.640625 1.328125q-3.109375 1.328125 -4.75 3.734375q-1.625 2.40625 -1.625 5.734375q0 3.703125 1.5625 6.171875q1.5625 2.453125 5.0 4.359375q3.453125 1.890625 9.140625 3.96875q6.203129 2.265625 10.531254 4.796875q4.34375 2.53125 6.609375 6.171875q2.265625 3.625 2.265625 9.21875z" fill-rule="nonzero"/></g></svg>