<svg xmlns="http://www.w3.org/2000/svg" viewBox="0 0 502 79.42"><defs><style>.cls-1{fill:#ff6900;}</style></defs><g id="Layer_2" data-name="Layer 2"><g id="Layer_1-2" data-name="Layer 1"><path class="cls-1" d="M14.79,20.37,8.53,14.86,15.09,8.4l5.59,6.16a32.77,32.77,0,0,1,3.57-2.35L20.61,4.77l8.57-3.49L32,9.07a33.65,33.65,0,0,1,4.21-.82L35.69,0H45L44.5,8.25a33.5,33.5,0,0,1,4.2.82l2.77-7.79,8.58,3.49-3.64,7.44A31.72,31.72,0,0,1,60,14.56l5.6-6.16,6.56,6.46-6.26,5.51a32.43,32.43,0,0,1,2.39,3.51l7.55-3.59,3.55,8.45-7.91,2.72a33,33,0,0,1,.83,4.14l8.38-.46v9.14l-8.38-.46A31.31,31.31,0,0,1,71.44,48l7.92,2.73-3.55,8.44-7.55-3.59a32.43,32.43,0,0,1-2.39,3.51l6.26,5.51L65.57,71,60,64.86a31.72,31.72,0,0,1-3.56,2.35l3.64,7.44-8.58,3.49L48.7,70.35a33.5,33.5,0,0,1-4.2.82L45,79.42H35.69l.47-8.25A33.65,33.65,0,0,1,32,70.35l-2.77,7.79-8.57-3.49,3.64-7.44a32.77,32.77,0,0,1-3.57-2.35L15.09,71,8.53,64.56l6.26-5.51a32.43,32.43,0,0,1-2.39-3.51L4.85,59.13,1.3,50.68,9.21,48a31.28,31.28,0,0,1-.83-4.14L0,44.28V35.14l8.38.46a31.28,31.28,0,0,1,.83-4.14L1.3,28.74l3.55-8.45,7.55,3.59A32.43,32.43,0,0,1,14.79,20.37Zm6,19.34A19.54,19.54,0,1,0,40.33,20.48,19.39,19.39,0,0,0,20.79,39.71ZM466.59,19.1l31,30.7V20.7H502V60L471,29.32v29h-4.42ZM412.43,39.48C412.43,48,419.7,55,428.72,55S445,48,445,39.48s-7.17-15.54-16.28-15.54S412.43,31,412.43,39.48Zm37,.05c0,10.81-9.39,19.38-20.71,19.38S408,50.34,408,39.53s9.38-19.48,20.71-19.48S449.43,28.77,449.43,39.53ZM389.51,28c-1.58-2.59-3.48-4.08-6.85-4.08-3.53,0-6.59,2.39-6.59,5.83,0,3.24,3.54,4.73,6.22,5.88l2.64,1.09c5.16,2.15,9.54,4.59,9.54,10.57,0,6.57-5.59,11.6-12.5,11.6-6.37,0-11.11-3.88-12.38-9.71l4.32-1.15a8,8,0,0,0,8,7c4.27,0,8.17-3.09,8.17-7.33s-3.64-5.88-7.33-7.47l-2.42-1c-4.64-2-8.64-4.23-8.64-9.61,0-5.83,5.22-9.57,11.12-9.57A11.5,11.5,0,0,1,393,25.88ZM338.1,38.09h1.37c5,0,10.06-.9,10.06-6.73,0-6.18-4.79-6.78-10.11-6.78H338.1Zm0,20.18h-4.43V20.7h5.75C347,20.7,354,22.59,354,31.06c0,5.78-3.85,9.87-10,10.37l12.65,16.84h-5.43l-12-16.49h-1.1ZM295.89,20.7h20.6v3.88H300.31V35.75H316v3.88H300.31V54.38h16.18v3.89h-20.6Zm-32,17.24h2.95c4.9,0,9.06-1.4,9.06-6.78,0-6.13-5.22-6.58-10.38-6.58h-1.63Zm0,20.33h-4.43V20.7H266c3.42,0,6.95.1,9.85,2a10.45,10.45,0,0,1,.68,16.64c-2.68,2.1-6.11,2.49-9.43,2.49h-3.21ZM227.45,27.08v8.27h11.84v6.38H227.45V51.9h12.3v6.38H220V20.7h19.74v6.38ZM189.09,43l9.09-22.34h8l-17,39.62L172.42,20.7h8ZM158.65,58.28h-7.44V20.7h7.44ZM126.44,51.9H137v6.38H119V20.7h7.44Z"/></g></g></svg>